<svg width="535" height="497" viewBox="0 0 535 497" fill="none" xmlns="http://www.w3.org/2000/svg">
<path opacity="0.5" d="M361.969 445.973C452.349 445.973 525.616 440.876 525.616 434.588C525.616 428.3 452.349 423.203 361.969 423.203C271.59 423.203 198.323 428.3 198.323 434.588C198.323 440.876 271.59 445.973 361.969 445.973Z" fill="#B2B2B2"/>
<path d="M223.175 171.805L209.144 198.206C209.144 198.206 201.157 186.458 201.74 177.069C202.348 167.435 207.513 162.144 215.046 163.674C221.57 164.997 223.175 171.805 223.175 171.805Z" fill="#AF1F17"/>
<path d="M223.174 171.805L209.144 198.206C209.144 198.206 223.343 198.297 230.785 192.565C238.422 186.691 239.924 179.429 234.448 174.022C229.711 169.341 223.174 171.805 223.174 171.805Z" fill="#8D1B0E"/>
<path d="M120.298 142.057L130.886 164.62C130.886 164.62 119.056 164.102 113.101 159.019C106.992 153.806 106.034 147.698 110.823 143.419C114.952 139.723 120.298 142.057 120.298 142.057Z" fill="#AF1F17"/>
<path d="M120.298 142.057L130.886 164.621C130.886 164.621 138.031 155.167 137.928 147.322C137.824 139.282 133.734 134.653 127.404 135.613C121.916 136.442 120.298 142.057 120.298 142.057Z" fill="#8D1B0E"/>
<path d="M203.112 62.373L213.7 84.9492C213.7 84.9492 201.869 84.4305 195.915 79.3473C189.793 74.1344 188.848 68.0268 193.624 63.7605C197.766 60.0389 203.112 62.373 203.112 62.373Z" fill="#AF1F17"/>
<path d="M203.112 62.373L213.7 84.9491C213.7 84.9491 220.845 75.4959 220.741 67.6507C220.638 59.6109 216.547 54.9816 210.218 55.9411C204.73 56.7581 203.112 62.373 203.112 62.373Z" fill="#8D1B0E"/>
<path d="M173.937 130.828L169.342 144.431C169.342 144.431 164.643 139.49 164.19 134.99C163.724 130.387 165.769 127.469 169.445 127.599C172.642 127.716 173.937 130.828 173.937 130.828Z" fill="#AF1F17"/>
<path d="M173.937 130.828L169.342 144.43C169.342 144.43 176.072 143.354 179.153 140.06C182.311 136.676 182.454 133.123 179.451 130.983C176.849 129.142 173.937 130.828 173.937 130.828Z" fill="#8D1B0E"/>
<path d="M271.674 98.8244L282.262 121.401C282.262 121.401 270.432 120.882 264.478 115.799C258.355 110.586 257.41 104.478 262.187 100.212C266.329 96.4903 271.674 98.8244 271.674 98.8244Z" fill="#AF1F17"/>
<path d="M271.674 98.8244L282.262 121.401C282.262 121.401 289.407 111.947 289.304 104.102C289.2 96.0623 285.11 91.433 278.78 92.3926C273.292 93.2095 271.674 98.8244 271.674 98.8244Z" fill="#8D1B0E"/>
<path d="M337.816 44.8282L323.76 65.4074C323.76 65.4074 318.22 54.9297 319.566 47.2012C320.951 39.2781 325.727 35.362 331.823 37.3201C337.117 39.0318 337.816 44.8282 337.816 44.8282Z" fill="#AF1F17"/>
<path d="M337.817 44.8281L323.76 65.4073C323.76 65.4073 335.513 66.7818 342.217 62.723C349.091 58.5605 350.993 52.6733 346.955 47.6938C343.46 43.3887 337.817 44.8281 337.817 44.8281Z" fill="#8D1B0E"/>
<path d="M270.665 46.7733L266.07 60.3761C266.07 60.3761 261.371 55.4355 260.918 50.9358C260.452 46.3324 262.497 43.4148 266.173 43.5444C269.37 43.6741 270.665 46.7733 270.665 46.7733Z" fill="#AF1F17"/>
<path d="M270.665 46.7733L266.07 60.376C266.07 60.376 272.801 59.2997 275.881 56.006C279.039 52.6216 279.182 49.0685 276.179 46.9289C273.564 45.0875 270.665 46.7733 270.665 46.7733Z" fill="#8D1B0E"/>
<path d="M96.249 210.227L100.844 223.83C100.844 223.83 105.543 218.889 105.996 214.389C106.462 209.773 104.416 206.868 100.74 206.998C97.5434 207.128 96.249 210.227 96.249 210.227Z" fill="#AF1F17"/>
<path d="M96.2488 210.227L100.844 223.83C100.844 223.83 94.1131 222.753 91.0326 219.46C87.8743 216.075 87.7319 212.522 90.7348 210.383C93.3495 208.554 96.2488 210.227 96.2488 210.227Z" fill="#8D1B0E"/>
<path d="M375.754 77.1946L376.427 102.118C376.427 102.118 386.756 96.3214 389.798 89.0986C392.917 81.6813 391.027 75.8071 384.84 74.1472C379.482 72.7079 375.754 77.1946 375.754 77.1946Z" fill="#AF1F17"/>
<path d="M375.754 77.1947L376.427 102.118C376.427 102.118 365.8 96.8921 362.37 89.8508C358.849 82.615 360.429 76.65 366.512 74.6401C371.793 72.9154 375.754 77.1947 375.754 77.1947Z" fill="#8D1B0E"/>
<path d="M304.15 158.422L308.745 172.025C308.745 172.025 313.443 167.084 313.896 162.585C314.362 157.981 312.317 155.064 308.641 155.193C305.444 155.323 304.15 158.422 304.15 158.422Z" fill="#AF1F17"/>
<path d="M304.15 158.422L308.745 172.025C308.745 172.025 302.014 170.962 298.933 167.655C295.775 164.27 295.633 160.717 298.636 158.578C301.25 156.736 304.15 158.422 304.15 158.422Z" fill="#8D1B0E"/>
<path d="M508.155 284.543H252.738V432.448H508.155V284.543Z" fill="#D48256"/>
<path d="M508.155 284.543H252.738V303.54H508.155V284.543Z" fill="#BB744C"/>
<path d="M515.455 271.511H245.438V290.287H515.455V271.511Z" fill="#D48256"/>
<path d="M515.442 271.511H245.438L302.83 212.237H461.959L515.442 271.511Z" fill="#D79C5D"/>
<path d="M343.538 236.136L334.93 245.018H425.95L417.925 236.136H343.538Z" fill="#B05F3E"/>
<path d="M346.463 239.533H421.005L417.925 236.136H343.538L334.93 245.018H341.156L346.463 239.533Z" fill="#7D402E"/>
<path d="M395.959 329.41C380.712 324.858 369.697 337.437 369.697 337.437C369.697 337.437 358.682 324.871 343.434 329.41C325.843 334.662 320.873 351.649 330.387 372.63C339.667 393.092 369.697 408.887 369.697 408.887C369.697 408.887 399.726 393.092 409.006 372.63C418.52 351.662 413.55 334.662 395.959 329.41Z" fill="#7D402E"/>
<path d="M375.909 333.274V404.724C375.909 404.724 345.88 388.93 336.599 368.48C327.073 347.499 332.056 330.499 349.647 325.26C364.894 320.709 375.909 333.274 375.909 333.274Z" fill="#AF1F17"/>
<path d="M375.909 333.274V404.724C375.909 404.724 405.938 388.93 415.219 368.48C424.733 347.499 419.762 330.499 402.172 325.26C386.924 320.709 375.909 333.274 375.909 333.274Z" fill="#8D1B0E"/>
<path d="M424.681 197.441C412.32 204.625 388.374 199.827 388.374 199.827L388.879 179.377L425.962 170.819C425.962 170.819 437.055 190.27 424.681 197.441Z" fill="#A65532"/>
<path d="M442.078 177.497C432.033 186.185 408.515 187.871 408.515 187.871L406.198 167.551L438.091 154.363C438.078 154.337 452.122 168.809 442.078 177.497Z" fill="#A65532"/>
<path d="M451.5 161.327C441.456 170.015 417.938 171.701 417.938 171.701L415.621 151.381L447.514 138.193C447.501 138.18 461.545 152.639 451.5 161.327Z" fill="#A65532"/>
<path d="M464.975 79.3342L492.053 107.512L432.732 143.328L400.8 164.491C400.8 164.491 399.364 182.451 406.741 187.262C418.947 195.236 406.923 214.921 391.326 208.943C375.741 202.965 350.708 183.281 353.698 169.885C356.675 156.49 382.071 119.352 388.931 113.114C401.422 101.729 464.975 79.3342 464.975 79.3342Z" fill="#C97246"/>
<path d="M475.291 111.247C461.856 111.804 448.498 112.531 435.127 114.035C432.797 114.294 431.179 113.14 430.351 111.532C422.779 114.618 416.708 119.637 411.569 126.613C405.201 135.249 399.377 143.652 391.623 151.134C385.54 156.996 377.411 163.842 376.893 172.971C376.842 173.814 376.57 178.936 378.058 179.144C380.349 179.468 382.744 178.366 384.776 177.432C390.044 174.981 394.782 171.584 399.959 168.978C400.205 168.861 400.438 168.757 400.671 168.679C400.645 166.203 400.774 164.504 400.774 164.504L432.706 143.341L486.203 111.052C485.478 110.962 484.753 110.871 484.028 110.78C481.064 110.91 478.113 111.13 475.291 111.247Z" fill="#B85A30"/>
<path d="M397.953 130.841L414.326 154.986L418.96 152.444L397.953 130.841Z" fill="#A65532"/>
<path d="M360.959 174.125L390.031 176.058L390.898 170.845L360.959 174.125Z" fill="#C38769"/>
<path d="M367.742 178.975L409.835 235.228C409.835 235.228 376.893 240.557 357.53 229.924C337.674 219.031 331.577 202.706 342.334 188.182C351.653 175.591 367.742 178.975 367.742 178.975Z" fill="#AF1F17"/>
<path d="M367.742 178.975L409.835 235.228C409.835 235.228 424.177 205.04 419.426 183.436C414.559 161.288 400.632 150.849 383.689 157.112C368.998 162.572 367.742 178.975 367.742 178.975Z" fill="#8D1B0E"/>
<path d="M429.975 108.407L492.04 107.512C492.04 107.512 469.052 121.971 465.816 128.091C460.82 137.519 463.616 143.95 448.511 155.543C434.557 166.254 413.964 179.676 396.658 187.884C383.119 194.303 370.383 183.708 380.699 172.984C388.827 164.543 399.842 156.179 406.664 150.136C413.485 144.093 412.333 120.648 429.975 108.407Z" fill="#C97246"/>
<path d="M494.215 52.012L451.035 78.3357L482.074 121.219L494.215 115.228V52.012Z" fill="#0D3858"/>
</svg>
