<svg width="207" height="32" viewBox="0 0 207 32" fill="none" xmlns="http://www.w3.org/2000/svg">
<g clip-path="url(#clip0_519_25)">
<path d="M37.2803 25.3874V13.8118H35.2109V11.2521H37.3079C37.6528 8.15204 39.9291 6.33179 43.8196 6.33179H45.1716V8.6071H43.3505C41.1708 8.6071 40.0395 9.20437 40.205 11.2521H45.1716V13.8118H40.2671V25.3874H37.2803Z" fill="white"/>
<path d="M46.834 25.3875V11.2522H49.5656V15.0633H49.7587C50.1726 12.788 51.6625 10.9678 54.4769 10.9678C57.581 10.9678 58.9605 13.2715 58.9605 15.945V17.7795H56.0082V16.528C56.0082 14.5087 55.1805 13.5702 53.1387 13.5702C50.7934 13.5702 49.8277 14.9069 49.8277 17.4382V25.3875H46.834Z" fill="white"/>
<path d="M60.2148 18.3341C60.2148 13.9257 63.2775 10.9678 67.8302 10.9678C72.3828 10.9678 75.4731 13.9257 75.4731 18.3341C75.4731 22.6856 72.4104 25.6719 67.8302 25.6719C63.2499 25.6719 60.2148 22.6856 60.2148 18.3341ZM72.5483 18.3341C72.5483 15.3193 71.1688 13.6697 67.8302 13.6697C64.4916 13.6697 63.1465 15.3193 63.1465 18.3341C63.1465 21.3488 64.5261 22.9558 67.8371 22.9558C71.1481 22.9558 72.5483 21.3346 72.5483 18.3341Z" fill="white"/>
<path d="M77.6328 25.3875V11.2522H80.3644V15.5184H80.5334C80.8783 13.1578 82.382 10.9678 85.8034 10.9678C88.9075 10.9678 90.6044 12.9302 90.9769 15.6321H91.1424C91.4873 13.2146 93.0462 10.9678 96.5228 10.9678C100.082 10.9678 101.876 13.4564 101.876 16.8836V25.3875H98.9233V17.7084C98.9233 14.9211 97.8472 13.7266 95.1984 13.7266C92.2737 13.7266 91.2252 15.2624 91.2252 18.391V25.3875H88.2729V17.7084C88.2729 14.9211 87.2382 13.7266 84.5721 13.7266C81.6233 13.7266 80.6024 15.2624 80.6024 18.391V25.3875H77.6328Z" fill="white"/>
<path d="M104.111 20.6235V20.5382H107.091V20.7657C107.091 22.6144 108.167 23.2117 111.036 23.2117C113.713 23.2117 114.513 22.6429 114.513 21.3914C114.513 20.2254 113.85 19.8556 111.891 19.5712L108.139 19.0593C105.545 18.7037 103.973 17.5803 103.973 15.2197C103.973 12.7311 106.152 10.9819 110.374 10.9819C114.595 10.9819 117.11 12.7169 117.11 16.0729V16.1582H114.154V15.9876C114.154 14.3096 113.326 13.4279 110.291 13.4279C107.78 13.4279 106.897 13.9967 106.897 15.3334C106.897 16.4427 107.449 16.8408 109.519 17.111L112.692 17.5661C115.947 17.9927 117.441 19.1304 117.441 21.4768C117.441 24.1218 114.899 25.6861 111.036 25.6861C106.621 25.6719 104.111 23.8801 104.111 20.6235Z" fill="white"/>
<path d="M119.037 18.3341C119.037 13.9257 121.989 10.9678 126.514 10.9678C130.629 10.9678 133.637 13.3568 133.637 16.8836V17.168H130.684V16.9973C130.684 14.8073 129.136 13.7266 126.463 13.7266C123.359 13.7266 121.979 15.234 121.979 18.3483C121.979 21.3915 123.359 22.9273 126.463 22.9273C129.136 22.9273 130.684 21.8608 130.684 19.6566V19.4575H133.637V19.7704C133.637 23.2971 130.629 25.6861 126.514 25.6861C121.989 25.6719 119.037 22.6856 119.037 18.3341Z" fill="white"/>
<path d="M135.842 25.3875V11.2522H138.573V15.0633H138.767C139.18 12.788 140.67 10.9678 143.485 10.9678C146.589 10.9678 147.968 13.2715 147.968 15.945V17.7795H145.016V16.528C145.016 14.5087 144.188 13.5702 142.146 13.5702C139.801 13.5702 138.835 14.9069 138.835 17.4382V25.3875H135.842Z" fill="white"/>
<path d="M149.223 21.9745C149.223 19.7846 150.947 18.6469 153.637 18.3341L159.873 17.6515V16.8267C159.873 14.4945 158.88 13.6697 156.259 13.6697C153.72 13.6697 152.465 14.5229 152.465 16.5991V16.7129H149.512V16.5991C149.512 13.3995 152.106 10.9678 156.465 10.9678C160.825 10.9678 162.784 13.4137 162.784 16.7982V25.3875H160.063V21.8608H159.87C159.152 24.2499 156.972 25.6719 153.855 25.6719C151.016 25.6719 149.223 24.3067 149.223 21.9745ZM154.658 23.4677C157.762 23.4677 159.873 22.2732 159.873 19.4859L154.493 20.1116C152.948 20.3107 152.203 20.6805 152.203 21.7897C152.203 22.8989 152.948 23.4677 154.658 23.4677Z" fill="white"/>
<path d="M171.296 25.3875C168.343 25.3875 166.522 24.0508 166.522 20.6094V13.8119H164.201V11.2522H166.519V8.1521H169.471V11.2522H174.438V13.8119H169.471V20.4387C169.471 22.1737 170.244 22.6287 171.954 22.6287H174.438V25.3875H171.296Z" fill="white"/>
<path d="M175.766 18.3341C175.766 13.9257 178.718 10.9678 183.243 10.9678C187.354 10.9678 190.362 13.3568 190.362 16.8836V17.168H187.409V16.9973C187.409 14.8073 185.864 13.7266 183.188 13.7266C180.084 13.7266 178.704 15.234 178.704 18.3483C178.704 21.3915 180.084 22.9273 183.188 22.9273C185.864 22.9273 187.409 21.8608 187.409 19.6566V19.4575H190.362V19.7704C190.362 23.2971 187.354 25.6861 183.243 25.6861C178.718 25.6719 175.766 22.6856 175.766 18.3341Z" fill="white"/>
<path d="M192.57 25.3874V6.33179H195.55V15.5752H195.716C196.185 13.1861 197.868 10.9535 201.372 10.9535C205.166 10.9535 207.001 13.5132 207.001 16.9546V25.3874H204.048V17.7083C204.048 14.8642 202.807 13.7265 199.965 13.7265C196.709 13.7265 195.55 15.5468 195.55 18.5331V25.3874H192.57Z" fill="white"/>
<path d="M28.1125 21.6438V10.3597C28.1126 9.53146 27.9009 8.71782 27.4989 8.00071C27.0968 7.2836 26.5186 6.68833 25.8224 6.27483L16.3446 0.63278C15.6489 0.218716 14.8596 0.000732422 14.0563 0.000732422C13.2529 0.000732422 12.4636 0.218716 11.7679 0.63278L2.28666 6.27483C1.59133 6.68905 1.01399 7.28458 0.61261 8.0016C0.211232 8.71862 -4.4238e-05 9.53188 6.94781e-09 10.3597V21.6438C-4.4238e-05 22.4716 0.211232 23.2849 0.61261 24.0019C1.01399 24.7189 1.59133 25.3144 2.28666 25.7287L11.7575 31.3707C12.4533 31.7848 13.2425 32.0028 14.0459 32.0028C14.8493 32.0028 15.6385 31.7848 16.3343 31.3707L25.8121 25.7287C26.5102 25.3165 27.0905 24.7218 27.4944 24.0046C27.8983 23.2874 28.1115 22.4731 28.1125 21.6438Z" fill="white"/>
<path d="M19.9861 7.43018H8.11133V10.285H19.9861V7.43018Z" fill="#4083FF"/>
<path d="M19.9939 21.4944H8.11914V24.3492H19.9939V21.4944Z" fill="#4083FF"/>
<path d="M23.2552 16.2384L5.35547 12.7854L4.84601 15.5915L22.7458 19.0445L23.2552 16.2384Z" fill="#4083FF"/>
</g>
<defs>
<clipPath id="clip0_519_25">
<rect width="207" height="32" fill="white"/>
</clipPath>
</defs>
</svg>
