<svg width="31" height="31" viewBox="0 0 31 31" fill="none" xmlns="http://www.w3.org/2000/svg">
<circle cx="15.7359" cy="15.1217" r="15.1217" fill="#1E293B"/>
<path fill-rule="evenodd" clip-rule="evenodd" d="M16.3936 7.80542C12.5149 7.80542 9.39453 10.9258 9.39453 14.8045C9.39453 17.8957 11.4068 20.5204 14.1772 21.4536C14.5272 21.5119 14.6438 21.3078 14.6438 21.1036C14.6438 20.9287 14.6438 20.4912 14.6438 19.908C12.6899 20.3454 12.2816 18.9747 12.2816 18.9747C11.9609 18.1582 11.4942 17.9541 11.4942 17.9541C10.8527 17.5166 11.5526 17.5166 11.5526 17.5166C12.2525 17.5749 12.6316 18.2457 12.6316 18.2457C13.244 19.3247 14.2647 19.0039 14.673 18.8289C14.7313 18.3623 14.9063 18.0707 15.1104 17.8957C13.5648 17.7208 11.9317 17.1083 11.9317 14.4254C11.9317 13.6671 12.1942 13.0255 12.6608 12.5589C12.6024 12.384 12.34 11.6841 12.7191 10.6925C12.7191 10.6925 13.3023 10.5176 14.6438 11.4216C15.1979 11.2758 15.8103 11.1883 16.3936 11.1883C16.9768 11.1883 17.5893 11.2758 18.1434 11.4216C19.4848 10.5176 20.0681 10.6925 20.0681 10.6925C20.4472 11.6549 20.2139 12.3548 20.1264 12.5589C20.5639 13.0547 20.8555 13.6671 20.8555 14.4254C20.8555 17.1083 19.2224 17.6916 17.6476 17.8666C17.91 18.0707 18.1142 18.5081 18.1142 19.1497C18.1142 20.0829 18.1142 20.8412 18.1142 21.0745C18.1142 21.2494 18.2308 21.4827 18.61 21.4244C21.3804 20.5204 23.3926 17.8957 23.3926 14.8045C23.3926 10.9258 20.2722 7.80542 16.3936 7.80542Z" fill="white"/>
</svg>
