<svg width="33" height="34" viewBox="0 0 33 34" fill="none" xmlns="http://www.w3.org/2000/svg">
<rect x="1.26978" y="1.49805" width="30.5186" height="30.5186" rx="1" stroke="white" stroke-opacity="0.09" stroke-width="2"/>
<path d="M18.3229 14.7603C19.2307 14.7603 20.1014 15.121 20.7433 15.7629C21.3853 16.4049 21.7459 17.2755 21.7459 18.1833V22.1768H19.4639V18.1833C19.4639 17.8807 19.3437 17.5905 19.1297 17.3765C18.9157 17.1626 18.6255 17.0423 18.3229 17.0423C18.0203 17.0423 17.7301 17.1626 17.5161 17.3765C17.3021 17.5905 17.1819 17.8807 17.1819 18.1833V22.1768H14.8999V18.1833C14.8999 17.2755 15.2605 16.4049 15.9025 15.7629C16.5444 15.121 17.4151 14.7603 18.3229 14.7603Z" fill="white"/>
<path d="M13.3916 15.3311H11.1096V22.1771H13.3916V15.3311Z" fill="white"/>
<path d="M12.2506 13.6196C12.8808 13.6196 13.3916 13.1087 13.3916 12.4786C13.3916 11.8484 12.8808 11.3376 12.2506 11.3376C11.6205 11.3376 11.1096 11.8484 11.1096 12.4786C11.1096 13.1087 11.6205 13.6196 12.2506 13.6196Z" fill="white"/>
</svg>
