<svg width="31" height="31" viewBox="0 0 31 31" fill="none" xmlns="http://www.w3.org/2000/svg">
<circle cx="15.5308" cy="15.1217" r="15.1217" fill="#1E293B"/>
<path d="M15.5313 9.12386C17.4849 9.12386 17.7163 9.13118 18.488 9.16637C18.9521 9.17205 19.4117 9.25725 19.8469 9.41828C20.1625 9.54 20.4491 9.72646 20.6883 9.96566C20.9275 10.2049 21.114 10.4915 21.2357 10.8071C21.3967 11.2423 21.4819 11.7019 21.4876 12.166C21.5225 12.9377 21.5301 13.1691 21.5301 15.1227C21.5301 17.0763 21.5228 17.3077 21.4876 18.0794C21.4819 18.5435 21.3967 19.0031 21.2357 19.4383C21.114 19.7539 20.9275 20.0405 20.6883 20.2797C20.4491 20.5189 20.1625 20.7054 19.8469 20.8271C19.4117 20.9881 18.9521 21.0734 18.488 21.079C17.7166 21.1139 17.4853 21.1215 15.5313 21.1215C13.5773 21.1215 13.346 21.1142 12.5746 21.079C12.1105 21.0734 11.6509 20.9881 11.2157 20.8271C10.9001 20.7054 10.6134 20.5189 10.3742 20.2797C10.135 20.0405 9.94859 19.7539 9.82687 19.4383C9.66584 19.0031 9.58064 18.5435 9.57496 18.0794C9.54011 17.3077 9.53245 17.0763 9.53245 15.1227C9.53245 13.1691 9.53977 12.9377 9.57496 12.166C9.58064 11.7019 9.66584 11.2423 9.82687 10.8071C9.94859 10.4915 10.135 10.2049 10.3742 9.96566C10.6134 9.72646 10.9001 9.54 11.2157 9.41828C11.6509 9.25725 12.1105 9.17205 12.5746 9.16637C13.3463 9.13153 13.5777 9.12386 15.5313 9.12386ZM15.5313 7.80542C13.5453 7.80542 13.2951 7.81378 12.5146 7.84932C11.9073 7.8614 11.3065 7.97639 10.7377 8.18938C10.2497 8.37324 9.8077 8.66135 9.44256 9.03362C9.06995 9.3989 8.78159 9.84113 8.59762 10.3294C8.38462 10.8983 8.26964 11.4991 8.25756 12.1064C8.22272 12.8862 8.21436 13.1363 8.21436 15.1224C8.21436 17.1084 8.22272 17.3585 8.25826 18.139C8.27034 18.7463 8.38532 19.3471 8.59832 19.916C8.78208 20.4042 9.0702 20.8464 9.44256 21.2118C9.8079 21.5841 10.2501 21.8723 10.7383 22.056C11.3072 22.269 11.908 22.384 12.5153 22.3961C13.2958 22.4309 13.5449 22.44 15.532 22.44C17.5191 22.44 17.7682 22.4316 18.5487 22.3961C19.1559 22.384 19.7568 22.269 20.3256 22.056C20.8115 21.8677 21.2528 21.58 21.6212 21.2114C21.9895 20.8428 22.2769 20.4013 22.465 19.9153C22.678 19.3465 22.7929 18.7456 22.805 18.1383C22.8399 17.3585 22.8482 17.1084 22.8482 15.1224C22.8482 13.1363 22.8399 12.8862 22.8043 12.1057C22.7922 11.4984 22.6773 10.8976 22.4643 10.3287C22.2805 9.8405 21.9924 9.39827 21.62 9.03292C21.2547 8.66057 20.8125 8.37245 20.3242 8.18869C19.7554 7.97569 19.1545 7.8607 18.5473 7.84862C17.7675 7.81378 17.5173 7.80542 15.5313 7.80542Z" fill="white"/>
<path d="M15.5333 11.3665C14.7902 11.3665 14.0637 11.5868 13.4458 11.9997C12.8279 12.4126 12.3463 12.9994 12.0619 13.686C11.7775 14.3726 11.7031 15.128 11.8481 15.8569C11.9931 16.5858 12.3509 17.2553 12.8764 17.7808C13.4019 18.3063 14.0714 18.6641 14.8003 18.8091C15.5291 18.9541 16.2846 18.8797 16.9712 18.5953C17.6578 18.3109 18.2446 17.8293 18.6575 17.2114C19.0704 16.5935 19.2907 15.867 19.2907 15.1239C19.2907 14.1273 18.8948 13.1716 18.1902 12.467C17.4855 11.7623 16.5298 11.3665 15.5333 11.3665ZM15.5333 17.5629C15.0509 17.5629 14.5794 17.4198 14.1783 17.1518C13.7772 16.8838 13.4646 16.5029 13.28 16.0572C13.0954 15.6116 13.0471 15.1212 13.1412 14.6481C13.2353 14.1749 13.4676 13.7404 13.8087 13.3993C14.1498 13.0582 14.5844 12.8259 15.0575 12.7318C15.5306 12.6377 16.021 12.686 16.4667 12.8706C16.9123 13.0552 17.2932 13.3678 17.5612 13.7689C17.8292 14.1699 17.9723 14.6415 17.9723 15.1239C17.9723 15.7707 17.7153 16.3911 17.2579 16.8485C16.8005 17.3059 16.1802 17.5629 15.5333 17.5629Z" fill="white"/>
<path d="M19.4381 12.0949C19.923 12.0949 20.3161 11.7018 20.3161 11.2169C20.3161 10.732 19.923 10.3389 19.4381 10.3389C18.9532 10.3389 18.5601 10.732 18.5601 11.2169C18.5601 11.7018 18.9532 12.0949 19.4381 12.0949Z" fill="white"/>
</svg>
