<svg width="264" height="54" viewBox="0 0 264 54" fill="none" xmlns="http://www.w3.org/2000/svg">
<rect width="264" height="54" rx="8" fill="#0064E9"/>
<path d="M114.121 36.7559V18.2622H117.186V36.7559H114.121ZM116.261 36.7559V33.9549H125.561V36.7559H116.261Z" fill="white"/>
<path d="M133.461 37.0738C132.175 37.0738 131.034 36.7789 130.038 36.1891C129.043 35.5993 128.259 34.7843 127.686 33.7456C127.115 32.7068 126.828 31.5091 126.828 30.1525C126.828 28.7959 127.119 27.5994 127.7 26.5594C128.281 25.5206 129.078 24.7057 130.091 24.1159C131.104 23.5261 132.262 23.2312 133.565 23.2312C134.745 23.2312 135.807 23.5345 136.749 24.1424C137.69 24.7503 138.444 25.6266 139.008 26.7713C139.572 27.916 139.853 29.281 139.853 30.8663H136.867C136.867 29.7216 136.73 28.7791 136.458 28.0388C136.185 27.2985 135.797 26.7484 135.295 26.3873C134.793 26.0262 134.18 25.8456 133.458 25.8456C132.736 25.8456 132.049 26.013 131.503 26.3476C130.957 26.6834 130.544 27.1709 130.261 27.8137C129.979 28.4565 129.839 29.263 129.839 30.2319C129.839 31.095 130.01 31.8353 130.354 32.4504C130.697 33.0667 131.164 33.5385 131.754 33.8647C132.343 34.1909 133 34.3534 133.722 34.3534C134.514 34.3534 135.165 34.1729 135.677 33.8118C136.187 33.4506 136.584 32.9884 136.865 32.4251L139.586 33.5879C139.217 34.2932 138.745 34.9083 138.173 35.438C137.6 35.9664 136.922 36.372 136.139 36.6525C135.355 36.9342 134.461 37.075 133.457 37.075L133.461 37.0738ZM128.784 30.8651V28.5131H138.296V30.8651H128.784Z" fill="white"/>
<path d="M146.382 37.0738C144.796 37.0738 143.567 36.7211 142.696 36.0169C141.824 35.3127 141.389 34.3173 141.389 33.0317C141.389 31.6571 141.851 30.6099 142.777 29.8876C143.701 29.1654 144.991 28.8043 146.646 28.8043H150.187V31.0769H147.597C146.418 31.0769 145.59 31.2394 145.114 31.5656C144.639 31.8918 144.402 32.354 144.402 32.9523C144.402 33.4639 144.607 33.8647 145.021 34.1548C145.436 34.4461 146.012 34.5905 146.752 34.5905C147.404 34.5905 147.972 34.4364 148.457 34.1283C148.941 33.8201 149.32 33.4145 149.593 32.9126C149.866 32.4106 150.002 31.8689 150.002 31.2876H151.086C151.086 33.0847 150.702 34.4978 149.936 35.5282C149.169 36.5574 147.985 37.0738 146.383 37.0738H146.382ZM150.134 36.756L150.001 34.2727V29.9659C150.001 29.0679 149.905 28.3192 149.711 27.721C149.517 27.1215 149.213 26.6641 148.799 26.3464C148.385 26.0298 147.843 25.8709 147.174 25.8709C146.557 25.8709 146.011 26.0021 145.535 26.2669C145.06 26.5305 144.664 26.9362 144.346 27.4814L141.651 26.5305C141.95 25.9491 142.337 25.4038 142.814 24.8923C143.289 24.3819 143.892 23.9775 144.624 23.6777C145.355 23.3792 146.223 23.2288 147.227 23.2288C148.512 23.2288 149.582 23.4671 150.437 23.9414C151.29 24.418 151.93 25.1222 152.352 26.0551C152.775 26.9891 152.986 28.1423 152.986 29.5157L152.907 36.7548H150.132L150.134 36.756Z" fill="white"/>
<path d="M161.202 37.0737C160.004 37.0737 158.961 36.7872 158.071 36.2154C157.182 35.6437 156.486 34.8372 155.984 33.7972C155.482 32.7584 155.23 31.5427 155.23 30.1512C155.23 28.7597 155.482 27.5235 155.984 26.4919C156.486 25.4616 157.182 24.6599 158.071 24.0881C158.961 23.5164 160.004 23.2299 161.202 23.2299C162.312 23.2299 163.268 23.5164 164.069 24.0881C164.87 24.6599 165.482 25.4616 165.905 26.4919C166.327 27.5223 166.539 28.7429 166.539 30.1512C166.539 31.5595 166.327 32.7584 165.905 33.7972C165.482 34.8372 164.87 35.6425 164.069 36.2154C163.268 36.7872 162.312 37.0737 161.202 37.0737ZM161.942 34.3786C162.612 34.3786 163.206 34.198 163.725 33.8369C164.245 33.4758 164.649 32.9787 164.941 32.3443C165.231 31.71 165.376 30.9793 165.376 30.1512C165.376 29.323 165.231 28.5924 164.941 27.9592C164.649 27.3249 164.245 26.8326 163.725 26.4799C163.205 26.1272 162.602 25.9515 161.916 25.9515C161.23 25.9515 160.586 26.1284 160.04 26.4799C159.494 26.8326 159.067 27.3249 158.76 27.9592C158.452 28.5936 158.288 29.3242 158.271 30.1512C158.289 30.9793 158.452 31.71 158.76 32.3443C159.068 32.9787 159.499 33.4758 160.054 33.8369C160.609 34.198 161.238 34.3786 161.944 34.3786H161.942ZM165.509 36.7559L165.376 34.2992V18.2622H168.309V36.7559H165.508H165.509Z" fill="white"/>
<path d="M171.586 36.7559V18.2622H174.545V36.7559H171.586Z" fill="white"/>
<path d="M182.259 36.7558L176.342 23.5452H179.564L184.161 34.6686L185.112 36.7558H182.258H182.259ZM179.907 42.3566C179.485 42.3566 179.013 42.2772 178.494 42.1195C177.974 41.9606 177.477 41.7584 177.001 41.5116L178.111 39.1079C178.446 39.2667 178.754 39.3943 179.036 39.4918C179.317 39.5881 179.546 39.6375 179.723 39.6375C180.145 39.6375 180.502 39.5267 180.793 39.3065C181.083 39.0862 181.317 38.7648 181.494 38.3423L183.052 34.6963L187.517 23.5464H190.74L184.611 38.1569C184.242 39.0019 183.867 39.7422 183.488 40.3766C183.109 41.0109 182.638 41.4996 182.075 41.8427C181.511 42.1857 180.789 42.3579 179.908 42.3579L179.907 42.3566Z" fill="white"/>
<path d="M88.907 30.6316V41.1099C88.907 42.7734 87.4541 43.8423 86.0314 43.6858C85.9591 43.6798 85.8929 43.6738 85.8267 43.6557C85.7545 43.6437 85.6763 43.6256 85.6041 43.6016C85.5258 43.5775 85.4536 43.5534 85.3754 43.5233C85.0636 43.3969 84.7627 43.2055 84.4991 42.9407L74.0208 32.4625C72.3934 30.8351 73.5405 28.0425 75.8468 28.0425H86.3311C87.7479 28.0425 88.907 29.2016 88.907 30.6304V30.6316Z" fill="white"/>
<path d="M106.88 12.8878V23.366C106.88 25.0295 105.427 26.0984 104.004 25.9419C103.932 25.9359 103.866 25.9299 103.799 25.9118C103.727 25.8998 103.649 25.8817 103.577 25.8577C103.498 25.8336 103.426 25.8095 103.348 25.7794C103.036 25.653 102.735 25.4616 102.472 25.1968L91.9935 14.7186C90.3661 13.0912 91.5132 10.2986 93.8195 10.2986H104.304C105.721 10.2986 106.88 11.4578 106.88 12.8865V12.8878Z" fill="white"/>
<path d="M89.2149 12.9022V23.3804C89.2149 25.0439 87.762 26.1128 86.338 25.9563C86.2658 25.9503 86.1996 25.9443 86.1334 25.9262C86.0612 25.9142 85.9829 25.8961 85.9107 25.8721C85.8325 25.848 85.7542 25.8239 85.682 25.7938C85.3702 25.6674 85.0693 25.476 84.8057 25.2112L74.3275 14.733C72.7 13.1056 73.8472 10.313 76.1535 10.313H86.6377C88.0605 10.313 89.2137 11.4722 89.2137 12.901L89.2149 12.9022Z" fill="white"/>
<g opacity="0.8">
<path d="M89.2149 12.9022V23.3804C89.2149 25.0439 87.762 26.1128 86.338 25.9563C86.2658 25.9503 86.1996 25.9443 86.1334 25.9262C86.0612 25.9142 85.9829 25.8961 85.9107 25.8721C85.8325 25.848 85.7542 25.8239 85.682 25.7938C85.3702 25.6674 85.0693 25.476 84.8057 25.2112L74.3275 14.733C72.7 13.1056 73.8472 10.313 76.1535 10.313H86.6377C88.0605 10.313 89.2137 11.4722 89.2137 12.901L89.2149 12.9022Z" fill="white"/>
</g>
<path d="M106.826 30.4944V40.9727C106.826 42.6362 105.373 43.7051 103.949 43.5486C103.877 43.5426 103.811 43.5366 103.745 43.5185C103.672 43.5065 103.594 43.4884 103.522 43.4643C103.444 43.4403 103.366 43.4162 103.293 43.3861C102.982 43.2597 102.681 43.0683 102.417 42.8035L91.9388 32.3253C90.3114 30.6979 91.4585 27.9053 93.7648 27.9053H104.249C105.672 27.9053 106.825 29.0644 106.825 30.4932L106.826 30.4944Z" fill="white"/>
<g opacity="0.8">
<path d="M106.826 30.4944V40.9727C106.826 42.6362 105.373 43.7051 103.949 43.5486C103.877 43.5426 103.811 43.5366 103.745 43.5185C103.672 43.5065 103.594 43.4884 103.522 43.4643C103.444 43.4403 103.366 43.4162 103.293 43.3861C102.982 43.2597 102.681 43.0683 102.417 42.8035L91.9388 32.3253C90.3114 30.6979 91.4585 27.9053 93.7648 27.9053H104.249C105.672 27.9053 106.825 29.0644 106.825 30.4932L106.826 30.4944Z" fill="white"/>
</g>
</svg>
