<svg width="33" height="34" viewBox="0 0 33 34" fill="none" xmlns="http://www.w3.org/2000/svg">
<rect x="0.235107" y="0.498047" width="32.5186" height="32.5186" rx="2" fill="white"/>
<path d="M22.0946 12.2464C21.5756 12.6205 21.001 12.9066 20.3928 13.0937C20.0664 12.7102 19.6326 12.4384 19.1501 12.3151C18.6676 12.1917 18.1596 12.2227 17.6949 12.404C17.2302 12.5852 16.8312 12.9078 16.5518 13.3283C16.2725 13.7488 16.1262 14.2468 16.1329 14.7549V15.3087C15.1804 15.3339 14.2367 15.1181 13.3856 14.6804C12.5346 14.2427 11.8027 13.5968 11.2551 12.8002C11.2551 12.8002 9.08719 17.7839 13.965 19.9989C12.8488 20.773 11.5191 21.1612 10.1711 21.1064C15.0489 23.8751 21.0107 21.1064 21.0107 14.7383C21.0102 14.5841 20.9957 14.4302 20.9673 14.2787C21.5205 13.7213 21.9108 13.0177 22.0946 12.2464Z" fill="#03041C"/>
</svg>
