<svg width="31" height="31" viewBox="0 0 31 31" fill="none" xmlns="http://www.w3.org/2000/svg">
<circle cx="15.1217" cy="15.1217" r="15.1217" fill="#1E293B"/>
<path d="M21.8255 11.8629C21.3729 12.0641 20.8952 12.1898 20.3923 12.2652C20.8952 11.9635 21.2975 11.4858 21.4735 10.9075C20.9958 11.184 20.4677 11.3852 19.8894 11.5109C19.4368 11.0332 18.7831 10.7314 18.079 10.7314C16.7213 10.7314 15.6149 11.8378 15.6149 13.1956C15.6149 13.3967 15.6401 13.5727 15.6904 13.7487C13.6537 13.6482 11.8182 12.6675 10.5861 11.1589C10.385 11.5361 10.2592 11.9384 10.2592 12.391C10.2592 13.2459 10.6867 14.0002 11.3656 14.4528C10.9633 14.4276 10.5861 14.3271 10.2341 14.151V14.1762C10.2341 15.3831 11.089 16.3889 12.2205 16.6152C12.0193 16.6655 11.793 16.6906 11.5667 16.6906C11.4159 16.6906 11.2398 16.6655 11.089 16.6403C11.4159 17.6209 12.321 18.3501 13.4022 18.3501C12.5473 19.0039 11.4913 19.4062 10.3347 19.4062C10.1335 19.4062 9.93236 19.4062 9.75635 19.381C10.8627 20.085 12.145 20.4874 13.5531 20.4874C18.1042 20.4874 20.5935 16.7157 20.5935 13.447C20.5935 13.3464 20.5935 13.2207 20.5935 13.1201C21.0712 12.7933 21.4986 12.3658 21.8255 11.8629Z" fill="white"/>
</svg>
